# xmcd CD database file
#
# Track frame offsets:
#	150
#	8171
#	28520
#	45463
#	71245
#	88692
#	104831
#	120120
#	135138
#	152283
#
# Disc length: 2450 seconds
#
# Revision: 1
# Processed by: cddbd v1.5.2PL0 Copyright (c) Steve Scherf et al.
# Submitted via: Kat CD Ripper 
#
DISCID=6f09900a
DTITLE=Mayumi - Water Symphony
DYEAR=1993
DGENRE=New Age
TTITLE0=Sea Foam
TTITLE1=Strawberry Farm
TTITLE2=Child In The Mountain
TTITLE3=Ripples
TTITLE4=Water Dance
TTITLE5=Brook
TTITLE6=Water III
TTITLE7=Adrift On The Lake
TTITLE8=Coffee Time
TTITLE9=Rock And Surf
EXTD=YEAR: 1993
EXTT0=
EXTT1=
EXTT2=
EXTT3=
EXTT4=
EXTT5=
EXTT6=
EXTT7=
EXTT8=
EXTT9=
PLAYORDER=
